<svg width="54" height="54" viewBox="0 0 54 54" fill="none" xmlns="http://www.w3.org/2000/svg">
<rect width="53.219" height="53.219" rx="9.8035" fill="#B8965A" fill-opacity="0.04"/>
<path d="M36.413 14.0049C37.1559 14.0049 37.8683 14.3 38.3936 14.8253C38.9189 15.3506 39.214 16.063 39.214 16.8059V36.4129C39.214 37.1558 38.9189 37.8682 38.3936 38.3935C37.8683 38.9188 37.1559 39.2139 36.413 39.2139H16.806C16.0631 39.2139 15.3507 38.9188 14.8254 38.3935C14.3001 37.8682 14.005 37.1558 14.005 36.4129V16.8059C14.005 16.063 14.3001 15.3506 14.8254 14.8253C15.3507 14.3 16.0631 14.0049 16.806 14.0049H36.413ZM35.7128 35.7126V28.29C35.7128 27.0791 35.2317 25.9178 34.3755 25.0616C33.5193 24.2054 32.358 23.7244 31.1471 23.7244C29.9567 23.7244 28.5702 24.4526 27.898 25.545V23.9905H23.9906V35.7126H27.898V28.8082C27.898 27.7298 28.7663 26.8475 29.8447 26.8475C30.3647 26.8475 30.8634 27.054 31.2311 27.4218C31.5988 27.7895 31.8054 28.2882 31.8054 28.8082V35.7126H35.7128ZM19.4389 21.7917C20.063 21.7917 20.6614 21.5438 21.1027 21.1025C21.5439 20.6613 21.7918 20.0628 21.7918 19.4388C21.7918 18.1364 20.7414 17.072 19.4389 17.072C18.8112 17.072 18.2092 17.3213 17.7653 17.7652C17.3215 18.2091 17.0721 18.8111 17.0721 19.4388C17.0721 20.7413 18.1365 21.7917 19.4389 21.7917ZM21.3856 35.7126V23.9905H17.5063V35.7126H21.3856Z" fill="#B8965A"/>
</svg>
