<svg width="54" height="54" viewBox="0 0 54 54" fill="none" xmlns="http://www.w3.org/2000/svg">
<rect width="53.219" height="53.219" rx="9.8035" fill="#B8965A" fill-opacity="0.04"/>
<path d="M32.2115 14.0049C34.0687 14.0049 35.8498 14.7426 37.163 16.0559C38.4763 17.3691 39.214 19.1502 39.214 21.0074V32.2114C39.214 34.0686 38.4763 35.8497 37.163 37.1629C35.8498 38.4761 34.0687 39.2139 32.2115 39.2139H21.0075C19.1503 39.2139 17.3692 38.4761 16.056 37.1629C14.7428 35.8497 14.005 34.0686 14.005 32.2114V21.0074C14.005 19.1502 14.7428 17.3691 16.056 16.0559C17.3692 14.7426 19.1503 14.0049 21.0075 14.0049H32.2115ZM26.6095 21.0074C25.1238 21.0074 23.6989 21.5976 22.6483 22.6482C21.5977 23.6988 21.0075 25.1236 21.0075 26.6094C21.0075 28.0951 21.5977 29.52 22.6483 30.5706C23.6989 31.6212 25.1238 32.2114 26.6095 32.2114C28.0953 32.2114 29.5201 31.6212 30.5707 30.5706C31.6213 29.52 32.2115 28.0951 32.2115 26.6094C32.2115 25.1236 31.6213 23.6988 30.5707 22.6482C29.5201 21.5976 28.0953 21.0074 26.6095 21.0074ZM26.6095 23.8084C27.3524 23.8084 28.0648 24.1035 28.5901 24.6288C29.1154 25.1541 29.4105 25.8665 29.4105 26.6094C29.4105 27.3523 29.1154 28.0647 28.5901 28.59C28.0648 29.1153 27.3524 29.4104 26.6095 29.4104C25.8666 29.4104 25.1542 29.1153 24.6289 28.59C24.1036 28.0647 23.8085 27.3523 23.8085 26.6094C23.8085 25.8665 24.1036 25.1541 24.6289 24.6288C25.1542 24.1035 25.8666 23.8084 26.6095 23.8084ZM32.9118 18.9066C32.5403 18.9066 32.1841 19.0542 31.9215 19.3168C31.6588 19.5795 31.5113 19.9357 31.5113 20.3071C31.5113 20.6786 31.6588 21.0348 31.9215 21.2974C32.1841 21.5601 32.5403 21.7076 32.9118 21.7076C33.2832 21.7076 33.6394 21.5601 33.9021 21.2974C34.1647 21.0348 34.3123 20.6786 34.3123 20.3071C34.3123 19.9357 34.1647 19.5795 33.9021 19.3168C33.6394 19.0542 33.2832 18.9066 32.9118 18.9066Z" fill="#B8965A"/>
</svg>
