<svg width="18" height="18" viewBox="0 0 18 18" fill="none" xmlns="http://www.w3.org/2000/svg">
<path d="M12.9375 7.875V9.5625C12.9375 10.6068 12.5227 11.6083 11.7842 12.3467C11.0458 13.0852 10.0443 13.5 9 13.5C7.95571 13.5 6.95419 13.0852 6.21577 12.3467C5.47734 11.6083 5.0625 10.6068 5.0625 9.5625V7.875H3.9375V9.5625C3.93809 10.8073 4.39732 12.0083 5.22744 12.936C6.05755 13.8636 7.20036 14.4529 8.4375 14.5913V15.75H6.1875V16.875H11.8125V15.75H9.5625V14.5913C10.7996 14.4529 11.9424 13.8636 12.7726 12.936C13.6027 12.0083 14.0619 10.8073 14.0625 9.5625V7.875H12.9375Z" fill="#B8965A"/>
<path d="M9 12.375C9.74592 12.375 10.4613 12.0787 10.9887 11.5512C11.5162 11.0238 11.8125 10.3084 11.8125 9.5625V3.9375C11.8125 3.19158 11.5162 2.47621 10.9887 1.94876C10.4613 1.42132 9.74592 1.125 9 1.125C8.25408 1.125 7.53871 1.42132 7.01126 1.94876C6.48382 2.47621 6.1875 3.19158 6.1875 3.9375V9.5625C6.1875 10.3084 6.48382 11.0238 7.01126 11.5512C7.53871 12.0787 8.25408 12.375 9 12.375Z" fill="#B8965A"/>
</svg>
