<svg width="18" height="18" viewBox="0 0 18 18" fill="none" xmlns="http://www.w3.org/2000/svg">
<path d="M7.5 16.5003H10.5C13.3282 16.5003 14.7427 16.5003 15.621 15.6221C16.4992 14.7438 16.5 13.3278 16.5 10.5003C16.5 7.67281 16.5 6.25756 15.621 5.37931C15.3495 5.10706 15.0255 4.91956 14.625 4.78981V6.86956C14.6272 7.12456 14.6318 7.55281 14.448 7.94431C14.265 8.33581 13.9335 8.60731 13.7355 8.76931C13.7155 8.78431 13.6972 8.79931 13.6807 8.81431L12.5505 9.75556C11.9055 10.2941 11.343 10.7621 10.8375 11.0876C10.2937 11.4371 9.705 11.6966 9 11.6966C8.295 11.6966 7.707 11.4371 7.1625 11.0876C6.657 10.7621 6.09525 10.2941 5.4495 9.75631L4.31925 8.81431L4.2645 8.76931C4.0665 8.60731 3.73575 8.33581 3.552 7.94431C3.369 7.55281 3.372 7.12456 3.37425 6.86956L3.375 6.79756V4.78906C2.9745 4.91881 2.6505 5.10706 2.379 5.37931C1.5 6.25756 1.5 7.67206 1.5 10.5003C1.5 13.3286 1.5 14.7431 2.379 15.6221C3.258 16.5011 4.67175 16.5003 7.5 16.5003Z" fill="#B8965A"/>
<path fill-rule="evenodd" clip-rule="evenodd" d="M5.03977 7.95L6.11902 8.85C7.49677 9.9975 8.18527 10.5712 8.99977 10.5712C9.81427 10.5712 10.5035 9.9975 11.8805 8.84925L12.9605 7.94925C13.2253 7.72875 13.358 7.61775 13.4293 7.467C13.4998 7.3155 13.4998 7.143 13.4998 6.79725V5.25C13.4998 5.01 13.4993 4.7855 13.4983 4.5765C13.4893 3.24825 13.4248 2.52375 12.9508 2.049C12.4018 1.5 11.5183 1.5 9.74977 1.5H8.24977C6.48202 1.5 5.59852 1.5 5.04877 2.049C4.57477 2.52375 4.50877 3.24825 4.49977 4.5765C4.49877 4.785 4.49877 5.0095 4.49977 5.25V6.79725C4.49977 7.14225 4.49977 7.3155 4.57102 7.467C4.64152 7.61775 4.77352 7.72875 5.03977 7.95ZM6.93727 4.5C6.93727 4.35082 6.99654 4.20774 7.10203 4.10225C7.20752 3.99676 7.35059 3.9375 7.49977 3.9375H10.4998C10.649 3.9375 10.792 3.99676 10.8975 4.10225C11.003 4.20774 11.0623 4.35082 11.0623 4.5C11.0623 4.64918 11.003 4.79226 10.8975 4.89775C10.792 5.00324 10.649 5.0625 10.4998 5.0625H7.49977C7.35059 5.0625 7.20752 5.00324 7.10203 4.89775C6.99654 4.79226 6.93727 4.64918 6.93727 4.5ZM7.68727 6.75C7.68727 6.60082 7.74654 6.45774 7.85203 6.35225C7.95752 6.24676 8.10059 6.1875 8.24977 6.1875H9.74977C9.89896 6.1875 10.042 6.24676 10.1475 6.35225C10.253 6.45774 10.3123 6.60082 10.3123 6.75C10.3123 6.89918 10.253 7.04226 10.1475 7.14775C10.042 7.25324 9.89896 7.3125 9.74977 7.3125H8.24977C8.10059 7.3125 7.95752 7.25324 7.85203 7.14775C7.74654 7.04226 7.68727 6.89918 7.68727 6.75Z" fill="#B8965A"/>
</svg>
