<svg width="18" height="18" viewBox="0 0 18 18" fill="none" xmlns="http://www.w3.org/2000/svg">
<path d="M4.965 8.0925C6.045 10.215 7.785 11.955 9.9075 13.035L11.5575 11.385C11.7675 11.175 12.06 11.115 12.3225 11.1975C13.1625 11.475 14.0625 11.625 15 11.625C15.1989 11.625 15.3897 11.704 15.5303 11.8447C15.671 11.9853 15.75 12.1761 15.75 12.375V15C15.75 15.1989 15.671 15.3897 15.5303 15.5303C15.3897 15.671 15.1989 15.75 15 15.75C11.6185 15.75 8.37548 14.4067 5.98439 12.0156C3.5933 9.62452 2.25 6.38151 2.25 3C2.25 2.80109 2.32902 2.61032 2.46967 2.46967C2.61032 2.32902 2.80109 2.25 3 2.25H5.625C5.82391 2.25 6.01468 2.32902 6.15533 2.46967C6.29598 2.61032 6.375 2.80109 6.375 3C6.375 3.9375 6.525 4.8375 6.8025 5.6775C6.885 5.94 6.825 6.2325 6.615 6.4425L4.965 8.0925Z" fill="#B8965A"/>
</svg>
