<svg width="64" height="64" viewBox="0 0 64 64" fill="none" xmlns="http://www.w3.org/2000/svg">
<rect width="64" height="64" rx="21.3333" fill="#B8965A" fill-opacity="0.1"/>
<path d="M31.3595 30.668C33.4803 30.668 35.1995 28.8771 35.1995 26.668C35.1995 24.4588 33.4803 22.668 31.3595 22.668C29.2388 22.668 27.5195 24.4588 27.5195 26.668C27.5195 28.8771 29.2388 30.668 31.3595 30.668Z" stroke="#B8965A" stroke-width="2" stroke-linecap="round"/>
<path d="M31.3605 34.668C35.9326 34.668 37.2382 38.0693 37.6107 40.0133C37.7502 40.7346 37.1883 41.3346 36.4805 41.3346H26.2405C25.5339 41.3346 24.9707 40.7346 25.1102 40.0133C25.4827 38.068 26.7883 34.668 31.3605 34.668Z" stroke="#B8965A" stroke-width="2" stroke-linecap="round"/>
<path d="M21.9794 33.7146C23.4943 33.7146 24.7224 32.4354 24.7224 30.8573C24.7224 29.2793 23.4943 28 21.9794 28C20.4644 28 19.2363 29.2793 19.2363 30.8573C19.2363 32.4354 20.4644 33.7146 21.9794 33.7146Z" stroke="#B8965A" stroke-width="2" stroke-linecap="round"/>
<path d="M21.98 36.5742C25.246 36.5742 26.1786 39.0039 26.4447 40.3925C26.5444 40.9078 26.143 41.3364 25.6374 41.3364H18.3226C17.8179 41.3364 17.4156 40.9078 17.5153 40.3925C17.7813 39.0029 18.714 36.5742 21.98 36.5742Z" stroke="#B8965A" stroke-width="2" stroke-linecap="round"/>
<path d="M40.2391 33.7146C41.754 33.7146 42.9821 32.4354 42.9821 30.8573C42.9821 29.2793 41.754 28 40.2391 28C38.7242 28 37.4961 29.2793 37.4961 30.8573C37.4961 32.4354 38.7242 33.7146 40.2391 33.7146Z" stroke="#B8965A" stroke-width="2" stroke-linecap="round"/>
<path d="M40.2398 36.5742C43.5058 36.5742 44.4384 39.0039 44.7045 40.3925C44.8041 40.9078 44.4028 41.3364 43.8971 41.3364H36.5824C36.0777 41.3364 35.6754 40.9078 35.775 40.3925C36.0411 39.0029 36.9737 36.5742 40.2398 36.5742Z" stroke="#B8965A" stroke-width="2" stroke-linecap="round"/>
</svg>
