<svg width="64" height="64" viewBox="0 0 64 64" fill="none" xmlns="http://www.w3.org/2000/svg">
<rect width="64" height="64" rx="21.3333" fill="#B8965A" fill-opacity="0.1"/>
<path d="M36.5003 22.6667V32H28.5003V22.6667H36.5003ZM36.5003 20H28.5003C27.7931 20 27.1148 20.281 26.6147 20.781C26.1146 21.2811 25.8337 21.9594 25.8337 22.6667V34.6667H39.167V22.6667C39.167 21.9594 38.886 21.2811 38.3859 20.781C37.8858 20.281 37.2076 20 36.5003 20ZM45.8337 29.3333H41.8337V33.3333H45.8337V29.3333ZM23.167 29.3333H19.167V33.3333H23.167V29.3333ZM43.167 36H21.8337V44H24.5003V38.6667H40.5003V44H43.167V36Z" fill="#B8965A"/>
</svg>
