<svg width="64" height="64" viewBox="0 0 64 64" fill="none" xmlns="http://www.w3.org/2000/svg">
<rect width="64" height="64" rx="21.3333" fill="#B8965A" fill-opacity="0.1"/>
<path d="M35.167 26.668H36.5003C36.8539 26.668 37.1931 26.5275 37.4431 26.2774C37.6932 26.0274 37.8337 25.6883 37.8337 25.3346C37.8337 24.981 37.6932 24.6419 37.4431 24.3918C37.1931 24.1418 36.8539 24.0013 36.5003 24.0013H35.167C34.8134 24.0013 34.4742 24.1418 34.2242 24.3918C33.9741 24.6419 33.8337 24.981 33.8337 25.3346C33.8337 25.6883 33.9741 26.0274 34.2242 26.2774C34.4742 26.5275 34.8134 26.668 35.167 26.668ZM35.167 32.0013H36.5003C36.8539 32.0013 37.1931 31.8608 37.4431 31.6108C37.6932 31.3607 37.8337 31.0216 37.8337 30.668C37.8337 30.3143 37.6932 29.9752 37.4431 29.7252C37.1931 29.4751 36.8539 29.3346 36.5003 29.3346H35.167C34.8134 29.3346 34.4742 29.4751 34.2242 29.7252C33.9741 29.9752 33.8337 30.3143 33.8337 30.668C33.8337 31.0216 33.9741 31.3607 34.2242 31.6108C34.4742 31.8608 34.8134 32.0013 35.167 32.0013ZM28.5003 26.668H29.8337C30.1873 26.668 30.5264 26.5275 30.7765 26.2774C31.0265 26.0274 31.167 25.6883 31.167 25.3346C31.167 24.981 31.0265 24.6419 30.7765 24.3918C30.5264 24.1418 30.1873 24.0013 29.8337 24.0013H28.5003C28.1467 24.0013 27.8076 24.1418 27.5575 24.3918C27.3075 24.6419 27.167 24.981 27.167 25.3346C27.167 25.6883 27.3075 26.0274 27.5575 26.2774C27.8076 26.5275 28.1467 26.668 28.5003 26.668ZM28.5003 32.0013H29.8337C30.1873 32.0013 30.5264 31.8608 30.7765 31.6108C31.0265 31.3607 31.167 31.0216 31.167 30.668C31.167 30.3143 31.0265 29.9752 30.7765 29.7252C30.5264 29.4751 30.1873 29.3346 29.8337 29.3346H28.5003C28.1467 29.3346 27.8076 29.4751 27.5575 29.7252C27.3075 29.9752 27.167 30.3143 27.167 30.668C27.167 31.0216 27.3075 31.3607 27.5575 31.6108C27.8076 31.8608 28.1467 32.0013 28.5003 32.0013ZM44.5003 42.668H43.167V20.0013C43.167 19.6477 43.0265 19.3085 42.7765 19.0585C42.5264 18.8084 42.1873 18.668 41.8337 18.668H23.167C22.8134 18.668 22.4742 18.8084 22.2242 19.0585C21.9741 19.3085 21.8337 19.6477 21.8337 20.0013V42.668H20.5003C20.1467 42.668 19.8076 42.8084 19.5575 43.0585C19.3075 43.3085 19.167 43.6477 19.167 44.0013C19.167 44.3549 19.3075 44.6941 19.5575 44.9441C19.8076 45.1942 20.1467 45.3346 20.5003 45.3346H44.5003C44.8539 45.3346 45.1931 45.1942 45.4431 44.9441C45.6932 44.6941 45.8337 44.3549 45.8337 44.0013C45.8337 43.6477 45.6932 43.3085 45.4431 43.0585C45.1931 42.8084 44.8539 42.668 44.5003 42.668ZM33.8337 42.668H31.167V37.3346H33.8337V42.668ZM40.5003 42.668H36.5003V36.0013C36.5003 35.6477 36.3598 35.3085 36.1098 35.0585C35.8598 34.8084 35.5206 34.668 35.167 34.668H29.8337C29.48 34.668 29.1409 34.8084 28.8908 35.0585C28.6408 35.3085 28.5003 35.6477 28.5003 36.0013V42.668H24.5003V21.3346H40.5003V42.668Z" fill="#B8965A"/>
</svg>
