<svg width="48" height="48" viewBox="0 0 48 48" fill="none" xmlns="http://www.w3.org/2000/svg">
<rect width="48" height="48" rx="24" fill="#B8965A" fill-opacity="0.1"/>
<path d="M15.9995 25.9987C15.8103 25.9993 15.6247 25.9463 15.4645 25.8457C15.3042 25.7451 15.1757 25.6011 15.0941 25.4304C15.0124 25.2597 14.9808 25.0693 15.003 24.8814C15.0252 24.6934 15.1003 24.5157 15.2195 24.3687L25.1195 14.1687C25.1938 14.083 25.295 14.0251 25.4065 14.0044C25.518 13.9838 25.6332 14.0017 25.7332 14.0552C25.8332 14.1087 25.9121 14.1946 25.9568 14.2988C26.0016 14.403 26.0096 14.5193 25.9795 14.6287L24.0595 20.6487C24.0029 20.8002 23.9839 20.9632 24.0041 21.1237C24.0243 21.2842 24.0832 21.4374 24.1756 21.5701C24.268 21.7029 24.3913 21.8112 24.5348 21.8859C24.6783 21.9605 24.8377 21.9992 24.9995 21.9987H31.9995C32.1887 21.9981 32.3743 22.0511 32.5345 22.1517C32.6948 22.2523 32.8233 22.3963 32.905 22.567C32.9866 22.7377 33.0182 22.9281 32.996 23.116C32.9738 23.304 32.8987 23.4817 32.7795 23.6287L22.8795 33.8287C22.8052 33.9144 22.704 33.9723 22.5925 33.993C22.481 34.0136 22.3658 33.9957 22.2658 33.9422C22.1658 33.8887 22.0869 33.8028 22.0422 33.6986C21.9974 33.5944 21.9894 33.4781 22.0195 33.3687L23.9395 27.3487C23.9961 27.1972 24.0151 27.0342 23.9949 26.8737C23.9747 26.7132 23.9158 26.56 23.8234 26.4273C23.731 26.2945 23.6077 26.1862 23.4642 26.1115C23.3207 26.0369 23.1613 25.9982 22.9995 25.9987H15.9995Z" stroke="#B8965A" stroke-width="2" stroke-linecap="round" stroke-linejoin="round"/>
</svg>
