<svg width="56" height="56" viewBox="0 0 56 56" fill="none" xmlns="http://www.w3.org/2000/svg">
<rect width="56" height="56" rx="28" fill="#B8965A" fill-opacity="0.1"/>
<path d="M31.7068 37.2928C31.5193 37.4803 31.265 37.5856 30.9998 37.5856C30.7347 37.5856 30.4804 37.4803 30.2928 37.2928L28.7068 35.7069C28.5194 35.5193 28.4141 35.265 28.4141 34.9998C28.4141 34.7347 28.5194 34.4804 28.7068 34.2928L34.2928 28.7068C34.4804 28.5194 34.7347 28.4141 34.9998 28.4141C35.265 28.4141 35.5193 28.5194 35.7069 28.7068L37.2928 30.2928C37.4803 30.4804 37.5856 30.7347 37.5856 30.9998C37.5856 31.265 37.4803 31.5193 37.2928 31.7068L31.7068 37.2928Z" stroke="#B8965A" stroke-width="2" stroke-linecap="round" stroke-linejoin="round"/>
<path d="M34 29L32.625 22.126C32.5876 21.939 32.4975 21.7666 32.3653 21.6291C32.2331 21.4916 32.0644 21.3947 31.879 21.35L19.235 18.028C19.0684 17.9877 18.8943 17.9909 18.7293 18.0373C18.5644 18.0837 18.4141 18.1717 18.2929 18.2929C18.1717 18.4141 18.0837 18.5644 18.0373 18.7293C17.9909 18.8943 17.9877 19.0684 18.028 19.235L21.35 31.879C21.3947 32.0644 21.4916 32.2331 21.6291 32.3653C21.7666 32.4975 21.939 32.5876 22.126 32.625L29 34" stroke="#B8965A" stroke-width="2" stroke-linecap="round" stroke-linejoin="round"/>
<path d="M18.3008 18.3008L25.5868 25.5868" stroke="#B8965A" stroke-width="2" stroke-linecap="round" stroke-linejoin="round"/>
<path d="M27 29C28.1046 29 29 28.1046 29 27C29 25.8954 28.1046 25 27 25C25.8954 25 25 25.8954 25 27C25 28.1046 25.8954 29 27 29Z" stroke="#B8965A" stroke-width="2" stroke-linecap="round" stroke-linejoin="round"/>
</svg>
