<svg width="56" height="56" viewBox="0 0 56 56" fill="none" xmlns="http://www.w3.org/2000/svg">
<rect width="56" height="56" rx="28" fill="#B8965A" fill-opacity="0.1"/>
<path d="M20.5 32.4993C19 33.7593 18.5 37.4993 18.5 37.4993C18.5 37.4993 22.24 36.9993 23.5 35.4993C24.21 34.6593 24.2 33.3693 23.41 32.5893C23.0213 32.2184 22.5093 32.004 21.9722 31.9874C21.4352 31.9708 20.9109 32.1531 20.5 32.4993Z" stroke="#B8965A" stroke-width="2" stroke-linecap="round" stroke-linejoin="round"/>
<path d="M28 31.0002L25 28.0002C25.5321 26.6197 26.2022 25.2963 27 24.0502C28.1652 22.1872 29.7876 20.6533 31.713 19.5943C33.6384 18.5354 35.8027 17.9866 38 18.0002C38 20.7202 37.22 25.5002 32 29.0002C30.7369 29.799 29.3968 30.469 28 31.0002Z" stroke="#B8965A" stroke-width="2" stroke-linecap="round" stroke-linejoin="round"/>
<path d="M25 27.9995H20C20 27.9995 20.55 24.9695 22 23.9995C23.62 22.9195 27 23.9995 27 23.9995" stroke="#B8965A" stroke-width="2" stroke-linecap="round" stroke-linejoin="round"/>
<path d="M28 31V36C28 36 31.03 35.45 32 34C33.08 32.38 32 29 32 29" stroke="#B8965A" stroke-width="2" stroke-linecap="round" stroke-linejoin="round"/>
</svg>
