<svg width="40" height="40" viewBox="0 0 40 40" fill="none" xmlns="http://www.w3.org/2000/svg">
<rect width="40" height="40" rx="20" fill="#B8965A" fill-opacity="0.1"/>
<path d="M26.6654 18.3327C26.6654 22.4935 22.0495 26.8268 20.4995 28.1652C20.3551 28.2738 20.1794 28.3325 19.9987 28.3325C19.818 28.3325 19.6423 28.2738 19.4979 28.1652C17.9479 26.8268 13.332 22.4935 13.332 18.3327C13.332 16.5646 14.0344 14.8689 15.2847 13.6186C16.5349 12.3684 18.2306 11.666 19.9987 11.666C21.7668 11.666 23.4625 12.3684 24.7127 13.6186C25.963 14.8689 26.6654 16.5646 26.6654 18.3327Z" stroke="#B8965A" stroke-width="1.66667" stroke-linecap="round" stroke-linejoin="round"/>
<path d="M20 20.833C21.3807 20.833 22.5 19.7137 22.5 18.333C22.5 16.9523 21.3807 15.833 20 15.833C18.6193 15.833 17.5 16.9523 17.5 18.333C17.5 19.7137 18.6193 20.833 20 20.833Z" stroke="#B8965A" stroke-width="1.66667" stroke-linecap="round" stroke-linejoin="round"/>
</svg>
