<svg width="48" height="48" viewBox="0 0 48 48" fill="none" xmlns="http://www.w3.org/2000/svg">
<rect width="48" height="48" rx="24" fill="#B8965A" fill-opacity="0.1"/>
<path d="M27.4787 24.8906L28.9937 33.4166C29.0107 33.517 28.9966 33.6202 28.9533 33.7124C28.9101 33.8046 28.8397 33.8813 28.7516 33.9324C28.6636 33.9835 28.562 34.0065 28.4605 33.9983C28.359 33.9902 28.2624 33.9512 28.1837 33.8866L24.6037 31.1996C24.4309 31.0705 24.2209 31.0007 24.0052 31.0007C23.7895 31.0007 23.5795 31.0705 23.4067 31.1996L19.8207 33.8856C19.742 33.9501 19.6456 33.989 19.5442 33.9972C19.4428 34.0054 19.3414 33.9825 19.2534 33.9315C19.1654 33.8805 19.095 33.804 19.0516 33.712C19.0083 33.62 18.994 33.5169 19.0107 33.4166L20.5247 24.8906" stroke="#B8965A" stroke-width="2" stroke-linecap="round" stroke-linejoin="round"/>
<path d="M24 26C27.3137 26 30 23.3137 30 20C30 16.6863 27.3137 14 24 14C20.6863 14 18 16.6863 18 20C18 23.3137 20.6863 26 24 26Z" stroke="#B8965A" stroke-width="2" stroke-linecap="round" stroke-linejoin="round"/>
</svg>
