<svg width="40" height="40" viewBox="0 0 40 40" fill="none" xmlns="http://www.w3.org/2000/svg">
<rect width="40" height="40" rx="20" fill="#B8965A" fill-opacity="0.1"/>
<path d="M28.3351 24.0994V26.5994C28.3361 26.8315 28.2886 27.0612 28.1956 27.2739C28.1026 27.4865 27.9662 27.6774 27.7952 27.8343C27.6242 27.9912 27.4223 28.1107 27.2024 28.185C26.9826 28.2594 26.7496 28.287 26.5185 28.2661C23.9542 27.9875 21.491 27.1112 19.3268 25.7078C17.3133 24.4283 15.6063 22.7212 14.3268 20.7078C12.9185 18.5338 12.042 16.0586 11.7685 13.4828C11.7477 13.2523 11.775 13.0201 11.8489 12.8008C11.9228 12.5815 12.0415 12.38 12.1975 12.2091C12.3535 12.0382 12.5433 11.9017 12.755 11.8082C12.9666 11.7147 13.1954 11.6663 13.4268 11.6661H15.9268C16.3312 11.6621 16.7233 11.8053 17.03 12.069C17.3366 12.3328 17.5369 12.699 17.5935 13.0994C17.699 13.8995 17.8947 14.685 18.1768 15.4411C18.2889 15.7394 18.3132 16.0635 18.2467 16.3752C18.1803 16.6868 18.0259 16.9729 17.8018 17.1994L16.7435 18.2578C17.9298 20.3441 19.6572 22.0715 21.7435 23.2578L22.8018 22.1994C23.0284 21.9754 23.3144 21.821 23.6261 21.7545C23.9377 21.688 24.2619 21.7123 24.5601 21.8244C25.3162 22.1066 26.1018 22.3022 26.9018 22.4078C27.3066 22.4649 27.6763 22.6688 27.9406 22.9807C28.2049 23.2926 28.3453 23.6907 28.3351 24.0994Z" stroke="#B8965A" stroke-width="1.66667" stroke-linecap="round" stroke-linejoin="round"/>
</svg>
