<svg width="40" height="40" viewBox="0 0 40 40" fill="none" xmlns="http://www.w3.org/2000/svg">
<path d="M24.9997 8.33333V20H14.9997V8.33333H24.9997ZM24.9997 5H14.9997C14.1156 5 13.2678 5.35119 12.6427 5.97631C12.0175 6.60143 11.6663 7.44928 11.6663 8.33333V23.3333H28.333V8.33333C28.333 7.44928 27.9818 6.60143 27.3567 5.97631C26.7316 5.35119 25.8837 5 24.9997 5ZM36.6663 16.6667H31.6663V21.6667H36.6663V16.6667ZM8.33301 16.6667H3.33301V21.6667H8.33301V16.6667ZM33.333 25H6.66634V35H9.99967V28.3333H29.9997V35H33.333V25Z" fill="#B8965A"/>
</svg>
