<svg width="60" height="60" viewBox="0 0 60 60" fill="none" xmlns="http://www.w3.org/2000/svg">
<rect width="60" height="60" rx="12" fill="#F0ECF4"/>
<path d="M34.9997 18.3333V30H24.9997V18.3333H34.9997ZM34.9997 15H24.9997C24.1156 15 23.2678 15.3512 22.6427 15.9763C22.0175 16.6014 21.6663 17.4493 21.6663 18.3333V33.3333H38.333V18.3333C38.333 17.4493 37.9818 16.6014 37.3567 15.9763C36.7316 15.3512 35.8837 15 34.9997 15ZM46.6663 26.6667H41.6663V31.6667H46.6663V26.6667ZM18.333 26.6667H13.333V31.6667H18.333V26.6667ZM43.333 35H16.6663V45H19.9997V38.3333H39.9997V45H43.333V35Z" fill="#663D8F"/>
</svg>
