<svg width="60" height="60" viewBox="0 0 60 60" fill="none" xmlns="http://www.w3.org/2000/svg">
<rect width="60" height="60" rx="12" fill="#F0ECF4"/>
<path d="M30.0003 45.8333C34.1996 45.8333 38.2269 44.1652 41.1962 41.1959C44.1655 38.2265 45.8337 34.1993 45.8337 30C45.8337 25.8007 44.1655 21.7735 41.1962 18.8041C38.2269 15.8348 34.1996 14.1667 30.0003 14.1667C25.8011 14.1667 21.7738 15.8348 18.8045 18.8041C15.8351 21.7735 14.167 25.8007 14.167 30C14.167 34.1993 15.8351 38.2265 18.8045 41.1959C21.7738 44.1652 25.8011 45.8333 30.0003 45.8333Z" stroke="#663D8F" stroke-width="3" stroke-linecap="round" stroke-linejoin="round"/>
<path d="M25 34.055C25.1063 35.2816 25.6897 36.4174 26.6247 37.2184C27.5597 38.0194 28.7716 38.4215 30 38.3383C34.0333 38.3383 35 36.0217 35 34.055C35 32.0883 33.3333 30.005 30 30.005C26.6667 30.005 25 28.6883 25 26.005C25.0311 25.3877 25.1867 24.7831 25.4575 24.2274C25.7283 23.6718 26.1087 23.1767 26.5758 22.7719C27.0429 22.3671 27.587 22.061 28.1755 21.8719C28.7639 21.6828 29.3845 21.6147 30 21.6717C31.2292 21.6187 32.432 22.0382 33.3618 22.844C34.2915 23.6498 34.8777 24.7808 35 26.005M30 40.8333V38.6667M30 19.1667V21.665" stroke="#663D8F" stroke-width="3" stroke-linecap="round" stroke-linejoin="round"/>
</svg>
