<svg width="60" height="60" viewBox="0 0 60 60" fill="none" xmlns="http://www.w3.org/2000/svg">
<rect width="60" height="60" rx="12" fill="#F0ECF4"/>
<path d="M17.1467 44.5217C16.8267 44.2017 16.6667 43.8056 16.6667 43.3333V38.3333C16.6667 37.4167 16.9933 36.6322 17.6467 35.98C18.3 35.3278 19.0844 35.0011 20 35H40C40.9167 35 41.7017 35.3267 42.355 35.98C43.0083 36.6333 43.3344 37.4178 43.3333 38.3333V43.3333C43.3333 43.8056 43.1733 44.2017 42.8533 44.5217C42.5333 44.8417 42.1378 45.0011 41.6667 45C41.1956 44.9989 40.8 44.8389 40.48 44.52C40.16 44.2011 40 43.8056 40 43.3333V38.3333H20V43.3333C20 43.8056 19.84 44.2017 19.52 44.5217C19.2 44.8417 18.8044 45.0011 18.3333 45C17.8622 44.9989 17.4667 44.8406 17.1467 44.5217ZM17.5 33.3333C16.8056 33.3333 16.2156 33.0906 15.73 32.605C15.2444 32.1194 15.0011 31.5289 15 30.8333C14.9989 30.1378 15.2422 29.5478 15.73 29.0633C16.2178 28.5789 16.8078 28.3356 17.5 28.3333C18.1922 28.3311 18.7828 28.5744 19.2717 29.0633C19.7606 29.5522 20.0033 30.1422 20 30.8333C19.9967 31.5244 19.7539 32.115 19.2717 32.605C18.7894 33.095 18.1989 33.3378 17.5 33.3333ZM21.6667 33.3333V18.3333C21.6667 17.4167 21.9933 16.6322 22.6467 15.98C23.3 15.3278 24.0844 15.0011 25 15H35C35.9167 15 36.7017 15.3267 37.355 15.98C38.0083 16.6333 38.3344 17.4178 38.3333 18.3333V33.3333H21.6667ZM40.73 32.605C40.2433 32.1183 40 31.5278 40 30.8333C40 30.1389 40.2433 29.5489 40.73 29.0633C41.2167 28.5778 41.8067 28.3344 42.5 28.3333C43.1933 28.3322 43.7839 28.5756 44.2717 29.0633C44.7594 29.5511 45.0022 30.1411 45 30.8333C44.9978 31.5256 44.755 32.1161 44.2717 32.605C43.7883 33.0939 43.1978 33.3367 42.5 33.3333C41.8022 33.33 41.2122 33.0872 40.73 32.605Z" fill="#663D8F"/>
</svg>
