<svg width="16" height="16" viewBox="0 0 16 16" fill="none" xmlns="http://www.w3.org/2000/svg">
<g clip-path="url(#clip0_875_4991)">
<path d="M8.55363 1.45227C8.37993 1.37304 8.19123 1.33203 8.0003 1.33203C7.80938 1.33203 7.62068 1.37304 7.44697 1.45227L1.73363 4.05227C1.61533 4.10443 1.51475 4.18987 1.44414 4.29817C1.37353 4.40648 1.33594 4.53298 1.33594 4.66227C1.33594 4.79156 1.37353 4.91806 1.44414 5.02637C1.51475 5.13467 1.61533 5.22011 1.73363 5.27227L7.45364 7.87894C7.62734 7.95817 7.81604 7.99917 8.00697 7.99917C8.19789 7.99917 8.38659 7.95817 8.5603 7.87894L14.2803 5.27894C14.3986 5.22677 14.4992 5.14134 14.5698 5.03303C14.6404 4.92473 14.678 4.79823 14.678 4.66894C14.678 4.53965 14.6404 4.41315 14.5698 4.30484C14.4992 4.19653 14.3986 4.1111 14.2803 4.05894L8.55363 1.45227Z" stroke="#F5EFE4" stroke-width="1.33333" stroke-linecap="round" stroke-linejoin="round"/>
<path d="M14.6673 11.7656L8.55398 14.539C8.38028 14.6182 8.19158 14.6592 8.00065 14.6592C7.80973 14.6592 7.62103 14.6182 7.44732 14.539L1.33398 11.7656" stroke="#F5EFE4" stroke-width="1.33333" stroke-linecap="round" stroke-linejoin="round"/>
<path d="M14.6673 8.43359L8.55398 11.2069C8.38028 11.2862 8.19158 11.3272 8.00065 11.3272C7.80973 11.3272 7.62103 11.2862 7.44732 11.2069L1.33398 8.43359" stroke="#F5EFE4" stroke-width="1.33333" stroke-linecap="round" stroke-linejoin="round"/>
</g>
<defs>
<clipPath id="clip0_875_4991">
<rect width="16" height="16" fill="white"/>
</clipPath>
</defs>
</svg>
