<svg width="16" height="16" viewBox="0 0 16 16" fill="none" xmlns="http://www.w3.org/2000/svg">
<path d="M6 2H2.66667C2.29848 2 2 2.29848 2 2.66667V7.33333C2 7.70152 2.29848 8 2.66667 8H6C6.36819 8 6.66667 7.70152 6.66667 7.33333V2.66667C6.66667 2.29848 6.36819 2 6 2Z" stroke="#F5EFE4" stroke-width="1.33333" stroke-linecap="round" stroke-linejoin="round"/>
<path d="M13.334 2H10.0007C9.63246 2 9.33398 2.29848 9.33398 2.66667V4.66667C9.33398 5.03486 9.63246 5.33333 10.0007 5.33333H13.334C13.7022 5.33333 14.0007 5.03486 14.0007 4.66667V2.66667C14.0007 2.29848 13.7022 2 13.334 2Z" stroke="#F5EFE4" stroke-width="1.33333" stroke-linecap="round" stroke-linejoin="round"/>
<path d="M13.334 8H10.0007C9.63246 8 9.33398 8.29848 9.33398 8.66667V13.3333C9.33398 13.7015 9.63246 14 10.0007 14H13.334C13.7022 14 14.0007 13.7015 14.0007 13.3333V8.66667C14.0007 8.29848 13.7022 8 13.334 8Z" stroke="#F5EFE4" stroke-width="1.33333" stroke-linecap="round" stroke-linejoin="round"/>
<path d="M6 10.666H2.66667C2.29848 10.666 2 10.9645 2 11.3327V13.3327C2 13.7009 2.29848 13.9993 2.66667 13.9993H6C6.36819 13.9993 6.66667 13.7009 6.66667 13.3327V11.3327C6.66667 10.9645 6.36819 10.666 6 10.666Z" stroke="#F5EFE4" stroke-width="1.33333" stroke-linecap="round" stroke-linejoin="round"/>
</svg>
