<svg width="16" height="16" viewBox="0 0 16 16" fill="none" xmlns="http://www.w3.org/2000/svg">
<g clip-path="url(#clip0_875_5311)">
<path d="M10.6673 14V12.6667C10.6673 11.9594 10.3864 11.2811 9.88627 10.781C9.38617 10.281 8.7079 10 8.00065 10H4.00065C3.29341 10 2.61513 10.281 2.11503 10.781C1.61494 11.2811 1.33398 11.9594 1.33398 12.6667V14" stroke="#491B27" stroke-width="1.33333" stroke-linecap="round" stroke-linejoin="round"/>
<path d="M6.00065 7.33333C7.47341 7.33333 8.66732 6.13943 8.66732 4.66667C8.66732 3.19391 7.47341 2 6.00065 2C4.52789 2 3.33398 3.19391 3.33398 4.66667C3.33398 6.13943 4.52789 7.33333 6.00065 7.33333Z" stroke="#491B27" stroke-width="1.33333" stroke-linecap="round" stroke-linejoin="round"/>
<path d="M14.666 14.0012V12.6679C14.6656 12.077 14.4689 11.5031 14.1069 11.0361C13.7449 10.5691 13.2381 10.2356 12.666 10.0879" stroke="#491B27" stroke-width="1.33333" stroke-linecap="round" stroke-linejoin="round"/>
<path d="M10.666 2.08789C11.2396 2.23476 11.748 2.56836 12.1111 3.0361C12.4742 3.50384 12.6712 4.07911 12.6712 4.67122C12.6712 5.26334 12.4742 5.83861 12.1111 6.30635C11.748 6.77409 11.2396 7.10769 10.666 7.25456" stroke="#491B27" stroke-width="1.33333" stroke-linecap="round" stroke-linejoin="round"/>
</g>
<defs>
<clipPath id="clip0_875_5311">
<rect width="16" height="16" fill="white"/>
</clipPath>
</defs>
</svg>
