<svg width="24" height="24" viewBox="0 0 24 24" fill="none" xmlns="http://www.w3.org/2000/svg">
<g clip-path="url(#clip0_905_32)">
<path d="M17.9261 0C14.6171 0 11.9261 2.691 11.9261 6C11.9261 9.309 14.6171 12 17.9261 12C21.2351 12 23.9261 9.309 23.9261 6C23.9261 2.691 21.2351 0 17.9261 0ZM15.9121 10.569C15.9151 10.546 15.9261 10.525 15.9261 10.5V10C15.9261 8.897 16.8231 8 17.9261 8C19.0291 8 19.9261 8.897 19.9261 10V10.5C19.9261 10.524 19.9361 10.545 19.9401 10.569C19.3231 10.842 18.6441 11 17.9261 11C17.2081 11 16.5301 10.842 15.9121 10.569ZM20.9231 9.977C20.9101 8.334 19.5721 7.001 17.9251 7.001C16.2781 7.001 14.9401 8.334 14.9271 9.977C13.7191 9.063 12.9251 7.629 12.9251 6.001C12.9251 3.244 15.1681 1.001 17.9251 1.001C20.6821 1.001 22.9251 3.244 22.9251 6.001C22.9251 7.629 22.1311 9.064 20.9231 9.977ZM17.9251 2.001C16.8221 2.001 15.9251 2.898 15.9251 4.001C15.9251 5.104 16.8221 6.001 17.9251 6.001C19.0281 6.001 19.9251 5.104 19.9251 4.001C19.9251 2.898 19.0281 2.001 17.9251 2.001ZM17.9251 5.001C17.3731 5.001 16.9251 4.553 16.9251 4.001C16.9251 3.449 17.3731 3.001 17.9251 3.001C18.4771 3.001 18.9251 3.449 18.9251 4.001C18.9251 4.553 18.4771 5.001 17.9251 5.001ZM15.5761 14.445C14.7651 13.633 13.3481 13.633 12.5361 14.445L8.72005 18.261C7.86205 19.119 6.48205 19.203 5.64205 18.449C5.19505 18.047 4.94105 17.495 4.92505 16.897C4.90905 16.298 5.13305 15.735 5.55705 15.312L9.58605 11.283C9.96405 10.905 10.1721 10.403 10.1721 9.869C10.1721 9.335 9.96405 8.833 9.58605 8.455L8.91005 7.778C8.13105 6.999 6.86205 6.999 6.08205 7.778L2.20605 11.654C-0.594948 14.456 -0.750948 18.988 1.85805 21.758C3.19105 23.174 4.99405 23.97 6.93605 23.999H7.04605C8.94605 23.999 10.7291 23.262 12.0751 21.915L16.0411 17.949C16.8801 17.11 16.8801 15.747 16.0411 14.908L15.5761 14.445ZM7.49505 8.193C7.75105 8.193 8.00805 8.291 8.20305 8.485L8.87905 9.162C9.06805 9.351 9.17205 9.602 9.17205 9.869C9.17205 10.136 9.06805 10.387 8.87905 10.576L8.44705 11.008L6.35605 8.917L6.78805 8.485C6.98305 8.291 7.23905 8.193 7.49505 8.193ZM11.3671 21.209C10.1871 22.389 8.59605 22.98 6.94905 23C5.28105 22.975 3.73105 22.29 2.58405 21.073C0.342052 18.692 0.489052 14.784 2.91205 12.361L5.64905 9.624L7.74005 11.715L4.85005 14.605C4.23105 15.224 3.90205 16.047 3.92505 16.923C3.94805 17.798 4.32005 18.604 4.97305 19.192C6.22105 20.314 8.17605 20.218 9.42705 18.968L12.2101 16.184L14.3001 18.275L11.3671 21.209ZM15.3331 17.243L15.0071 17.569L12.9171 15.478L13.2431 15.152C13.6791 14.719 14.4351 14.715 14.8691 15.152L15.3341 15.616C15.7821 16.064 15.7811 16.795 15.3331 17.243Z" fill="#1C1410"/>
</g>
<defs>
<clipPath id="clip0_905_32">
<rect width="24" height="24" fill="white"/>
</clipPath>
</defs>
</svg>
