<svg width="16" height="16" viewBox="0 0 16 16" fill="none" xmlns="http://www.w3.org/2000/svg">
<g clip-path="url(#clip0_875_5393)">
<path d="M8.55363 1.45422C8.37993 1.37499 8.19123 1.33398 8.0003 1.33398C7.80938 1.33398 7.62068 1.37499 7.44697 1.45422L1.73363 4.05422C1.61533 4.10639 1.51475 4.19182 1.44414 4.30013C1.37353 4.40843 1.33594 4.53493 1.33594 4.66422C1.33594 4.79351 1.37353 4.92001 1.44414 5.02832C1.51475 5.13662 1.61533 5.22206 1.73363 5.27422L7.45364 7.88089C7.62734 7.96012 7.81604 8.00113 8.00697 8.00113C8.19789 8.00113 8.38659 7.96012 8.5603 7.88089L14.2803 5.28089C14.3986 5.22873 14.4992 5.14329 14.5698 5.03499C14.6404 4.92668 14.678 4.80018 14.678 4.67089C14.678 4.5416 14.6404 4.4151 14.5698 4.30679C14.4992 4.19849 14.3986 4.11305 14.2803 4.06089L8.55363 1.45422Z" stroke="#491B27" stroke-width="1.33333" stroke-linecap="round" stroke-linejoin="round"/>
<path d="M14.6673 11.7676L8.55398 14.5409C8.38028 14.6201 8.19158 14.6611 8.00065 14.6611C7.80973 14.6611 7.62103 14.6201 7.44732 14.5409L1.33398 11.7676" stroke="#491B27" stroke-width="1.33333" stroke-linecap="round" stroke-linejoin="round"/>
<path d="M14.6673 8.43359L8.55398 11.2069C8.38028 11.2862 8.19158 11.3272 8.00065 11.3272C7.80973 11.3272 7.62103 11.2862 7.44732 11.2069L1.33398 8.43359" stroke="#491B27" stroke-width="1.33333" stroke-linecap="round" stroke-linejoin="round"/>
</g>
<defs>
<clipPath id="clip0_875_5393">
<rect width="16" height="16" fill="white"/>
</clipPath>
</defs>
</svg>
