<svg width="40" height="40" viewBox="0 0 40 40" fill="none" xmlns="http://www.w3.org/2000/svg">
<path d="M26.6667 18.3333L30.0001 21.6667L36.6667 15" stroke="#B8965A" stroke-width="3" stroke-linecap="round" stroke-linejoin="round"/>
<path d="M26.6666 35V31.6667C26.6666 29.8986 25.9642 28.2029 24.714 26.9526C23.4637 25.7024 21.768 25 19.9999 25H9.99992C8.23181 25 6.53612 25.7024 5.28587 26.9526C4.03563 28.2029 3.33325 29.8986 3.33325 31.6667V35" stroke="#B8965A" stroke-width="3" stroke-linecap="round" stroke-linejoin="round"/>
<path d="M14.9999 18.3333C18.6818 18.3333 21.6666 15.3486 21.6666 11.6667C21.6666 7.98477 18.6818 5 14.9999 5C11.318 5 8.33325 7.98477 8.33325 11.6667C8.33325 15.3486 11.318 18.3333 14.9999 18.3333Z" stroke="#B8965A" stroke-width="3" stroke-linecap="round" stroke-linejoin="round"/>
</svg>
