<svg width="60" height="60" viewBox="0 0 60 60" fill="none" xmlns="http://www.w3.org/2000/svg">
<rect width="60" height="60" rx="12" fill="#F0ECF4"/>
<path d="M25.0002 31.6667C28.6821 31.6667 31.6668 28.6819 31.6668 25C31.6668 21.3181 28.6821 18.3333 25.0002 18.3333C21.3183 18.3333 18.3335 21.3181 18.3335 25C18.3335 28.6819 21.3183 31.6667 25.0002 31.6667Z" stroke="#663D8F" stroke-width="3" stroke-linecap="round" stroke-linejoin="round"/>
<path d="M36.6668 41.6667C36.6668 36.1433 31.4435 31.6667 25.0002 31.6667C18.5568 31.6667 13.3335 36.1433 13.3335 41.6667M35.0002 31.6667C36.1141 31.6666 37.2103 31.3874 38.1886 30.8546C39.1669 30.3217 39.9961 29.5522 40.6003 28.6164C41.2046 27.6806 41.5648 26.6082 41.6479 25.4974C41.731 24.3865 41.5344 23.2725 41.0761 22.2572C40.6178 21.2418 39.9123 20.3575 39.0242 19.6851C38.1361 19.0126 37.0937 18.5734 35.9921 18.4076C34.8905 18.2418 33.765 18.3547 32.7183 18.7359C31.6716 19.1171 30.7371 19.7546 30.0002 20.59" stroke="#663D8F" stroke-width="3" stroke-linecap="round" stroke-linejoin="round"/>
<path d="M46.6667 41.6667C46.6667 36.1433 41.4433 31.6667 35 31.6667C33.655 31.6667 31.495 31.1783 30 29.6083" stroke="#663D8F" stroke-width="3" stroke-linecap="round" stroke-linejoin="round"/>
</svg>
