<svg width="40" height="40" viewBox="0 0 40 40" fill="none" xmlns="http://www.w3.org/2000/svg">
<path d="M26.6668 35V31.6667C26.6668 29.8986 25.9645 28.2029 24.7142 26.9526C23.464 25.7024 21.7683 25 20.0002 25H10.0002C8.23205 25 6.53636 25.7024 5.28612 26.9526C4.03588 28.2029 3.3335 29.8986 3.3335 31.6667V35" stroke="#B8965A" stroke-width="3" stroke-linecap="round" stroke-linejoin="round"/>
<path d="M15.0002 18.3333C18.6821 18.3333 21.6668 15.3486 21.6668 11.6667C21.6668 7.98477 18.6821 5 15.0002 5C11.3183 5 8.3335 7.98477 8.3335 11.6667C8.3335 15.3486 11.3183 18.3333 15.0002 18.3333Z" stroke="#B8965A" stroke-width="3" stroke-linecap="round" stroke-linejoin="round"/>
<path d="M28.3335 13.334L36.6668 21.6673" stroke="#B8965A" stroke-width="3" stroke-linecap="round" stroke-linejoin="round"/>
<path d="M36.6668 13.334L28.3335 21.6673" stroke="#B8965A" stroke-width="3" stroke-linecap="round" stroke-linejoin="round"/>
</svg>
