<svg width="80" height="16" viewBox="0 0 80 16" fill="none" xmlns="http://www.w3.org/2000/svg">
<path d="M7.9987 11.5159L12.1187 14.0026L11.0254 9.31594L14.6654 6.1626L9.87203 5.75594L7.9987 1.33594L6.12536 5.75594L1.33203 6.1626L4.97203 9.31594L3.8787 14.0026L7.9987 11.5159Z" fill="#DD962C"/>
<path d="M23.9987 11.5159L28.1187 14.0026L27.0254 9.31594L30.6654 6.1626L25.872 5.75594L23.9987 1.33594L22.1254 5.75594L17.332 6.1626L20.972 9.31594L19.8787 14.0026L23.9987 11.5159Z" fill="#DD962C"/>
<path d="M39.9987 11.5159L44.1187 14.0026L43.0254 9.31594L46.6654 6.1626L41.872 5.75594L39.9987 1.33594L38.1254 5.75594L33.332 6.1626L36.972 9.31594L35.8787 14.0026L39.9987 11.5159Z" fill="#DD962C"/>
<path d="M55.9987 11.5159L60.1187 14.0026L59.0254 9.31594L62.6654 6.1626L57.872 5.75594L55.9987 1.33594L54.1254 5.75594L49.332 6.1626L52.972 9.31594L51.8787 14.0026L55.9987 11.5159Z" fill="#DD962C"/>
<path d="M71.9987 11.5159L76.1187 14.0026L75.0254 9.31594L78.6654 6.1626L73.872 5.75594L71.9987 1.33594L70.1254 5.75594L65.332 6.1626L68.972 9.31594L67.8787 14.0026L71.9987 11.5159Z" fill="#DD962C"/>
</svg>
