<svg width="20" height="20" viewBox="0 0 20 20" fill="none" xmlns="http://www.w3.org/2000/svg">
<path fill-rule="evenodd" clip-rule="evenodd" d="M10 0C15.523 0 20 4.477 20 10C20 15.523 15.523 20 10 20C4.477 20 0 15.523 0 10C0 4.477 4.477 0 10 0ZM8.293 12.293C8.11084 12.4816 8.01005 12.7342 8.01233 12.9964C8.0146 13.2586 8.11977 13.5094 8.30518 13.6948C8.49059 13.8802 8.7414 13.9854 9.0036 13.9877C9.2658 13.99 9.5184 13.8892 9.707 13.707L12.707 10.707C12.8945 10.5195 12.9998 10.2652 12.9998 10C12.9998 9.73484 12.8945 9.48053 12.707 9.293L9.707 6.293C9.61475 6.19749 9.50441 6.12131 9.3824 6.0689C9.2604 6.01649 9.12918 5.9889 8.9964 5.98775C8.86362 5.9866 8.73194 6.0119 8.60905 6.06218C8.48615 6.11246 8.3745 6.18671 8.28061 6.28061C8.18671 6.3745 8.11246 6.48615 8.06218 6.60905C8.0119 6.73194 7.9866 6.86362 7.98775 6.9964C7.9889 7.12918 8.01649 7.2604 8.0689 7.3824C8.12131 7.50441 8.19749 7.61475 8.293 7.707L10.586 10L8.293 12.293Z" fill="#B8965A"/>
</svg>
