<svg width="93" height="23" viewBox="0 0 93 23" fill="none" xmlns="http://www.w3.org/2000/svg">
<path d="M1.5 9.54688C0.671573 9.54688 0 10.2184 0 11.0469C0 11.8753 0.671573 12.5469 1.5 12.5469V11.0469V9.54688ZM92.5607 12.1075C93.1464 11.5217 93.1464 10.572 92.5607 9.98621L83.0147 0.440273C82.4289 -0.145514 81.4792 -0.145514 80.8934 0.440273C80.3076 1.02606 80.3076 1.97581 80.8934 2.56159L89.3787 11.0469L80.8934 19.5322C80.3076 20.1179 80.3076 21.0677 80.8934 21.6535C81.4792 22.2393 82.4289 22.2393 83.0147 21.6535L92.5607 12.1075ZM1.5 11.0469V12.5469H91.5V11.0469V9.54688H1.5V11.0469Z" fill="#B8965A"/>
</svg>
