<svg width="23" height="31" viewBox="0 0 23 31" fill="none" xmlns="http://www.w3.org/2000/svg">
<path d="M12.5459 1.5C12.5459 0.671573 11.8743 -3.62117e-08 11.0459 0C10.2175 3.62117e-08 9.5459 0.671573 9.5459 1.5L11.0459 1.5L12.5459 1.5ZM9.98524 30.0206C10.571 30.6064 11.5208 30.6064 12.1066 30.0206L21.6525 20.4747C22.2383 19.8889 22.2383 18.9391 21.6525 18.3534C21.0667 17.7676 20.117 17.7676 19.5312 18.3534L11.0459 26.8386L2.56062 18.3534C1.97483 17.7676 1.02508 17.7676 0.439297 18.3534C-0.146489 18.9391 -0.146489 19.8889 0.439298 20.4747L9.98524 30.0206ZM11.0459 1.5L9.5459 1.5L9.5459 28.96L11.0459 28.96L12.5459 28.96L12.5459 1.5L11.0459 1.5Z" fill="#DD962C"/>
</svg>
