<svg width="64" height="64" viewBox="0 0 64 64" fill="none" xmlns="http://www.w3.org/2000/svg">
<rect width="64" height="64" rx="21.3333" fill="#B8965A" fill-opacity="0.2"/>
<path d="M33.1073 18.9065C32.7599 18.748 32.3825 18.666 32.0006 18.666C31.6188 18.666 31.2414 18.748 30.8939 18.9065L19.4673 24.1065C19.2307 24.2108 19.0295 24.3817 18.8883 24.5983C18.7471 24.8149 18.6719 25.0679 18.6719 25.3265C18.6719 25.5851 18.7471 25.8381 18.8883 26.0547C19.0295 26.2713 19.2307 26.4422 19.4673 26.5465L30.9073 31.7598C31.2547 31.9183 31.6321 32.0003 32.0139 32.0003C32.3958 32.0003 32.7732 31.9183 33.1206 31.7598L44.5606 26.5598C44.7972 26.4555 44.9984 26.2846 45.1396 26.068C45.2808 25.8514 45.356 25.5984 45.356 25.3398C45.356 25.0812 45.2808 24.8282 45.1396 24.6116C44.9984 24.395 44.7972 24.2242 44.5606 24.1198L33.1073 18.9065Z" stroke="#B8965A" stroke-width="2.66667" stroke-linecap="round" stroke-linejoin="round"/>
<path d="M45.3346 39.5332L33.108 45.0799C32.7606 45.2383 32.3832 45.3203 32.0013 45.3203C31.6194 45.3203 31.2421 45.2383 30.8946 45.0799L18.668 39.5332" stroke="#B8965A" stroke-width="2.66667" stroke-linecap="round" stroke-linejoin="round"/>
<path d="M45.3346 32.8672L33.108 38.4139C32.7606 38.5723 32.3832 38.6543 32.0013 38.6543C31.6194 38.6543 31.2421 38.5723 30.8946 38.4139L18.668 32.8672" stroke="#B8965A" stroke-width="2.66667" stroke-linecap="round" stroke-linejoin="round"/>
</svg>
