<svg width="28" height="28" viewBox="0 0 28 28" fill="none" xmlns="http://www.w3.org/2000/svg">
<circle cx="14" cy="14" r="14" fill="#491B27"/>
<path fill-rule="evenodd" clip-rule="evenodd" d="M13.6842 7.70331C13.7281 7.89725 13.6932 8.10068 13.5871 8.26889C13.4811 8.43709 13.3126 8.55631 13.1187 8.60031C12.9715 8.6338 12.8257 8.67283 12.6814 8.71731C12.5873 8.74637 12.4884 8.7566 12.3904 8.74743C12.2923 8.73826 12.197 8.70987 12.1099 8.66387C12.0228 8.61787 11.9456 8.55516 11.8828 8.47934C11.8199 8.40351 11.7726 8.31605 11.7436 8.22194C11.7145 8.12783 11.7043 8.02892 11.7135 7.93086C11.7226 7.83279 11.751 7.73749 11.797 7.6504C11.843 7.56332 11.9057 7.48614 11.9815 7.42328C12.0574 7.36042 12.1448 7.31312 12.2389 7.28406C12.4189 7.22806 12.6014 7.17931 12.7864 7.13781C12.8825 7.11596 12.982 7.11326 13.0791 7.12986C13.1762 7.14646 13.2691 7.18203 13.3525 7.23455C13.4359 7.28706 13.5081 7.35549 13.565 7.43593C13.6219 7.51636 13.6624 7.60722 13.6842 7.70331ZM15.2217 7.70331C15.2657 7.5094 15.3849 7.3409 15.5531 7.23486C15.7213 7.12882 15.9248 7.09391 16.1187 7.13781C19.4592 7.89531 21.9537 10.8818 21.9537 14.4518C21.9537 18.5941 18.5952 21.9518 14.4537 21.9518C10.8829 21.9518 7.89644 19.4581 7.13894 16.1176C7.10006 15.9255 7.13786 15.7259 7.24425 15.5614C7.35063 15.3969 7.51717 15.2806 7.70823 15.2373C7.8993 15.194 8.09972 15.2271 8.26664 15.3297C8.43357 15.4323 8.55373 15.5961 8.60144 15.7861C8.84011 16.8314 9.35452 17.7936 10.0912 18.5727C10.8278 19.3518 11.7598 19.9193 12.7901 20.2161C13.8204 20.5129 14.9115 20.5282 15.9497 20.2603C16.9879 19.9925 17.9354 19.4514 18.6936 18.6932C19.4517 17.935 19.9929 16.9875 20.2607 15.9493C20.5285 14.9111 20.5133 13.82 20.2165 12.7897C19.9197 11.7594 19.3522 10.8274 18.5731 10.0908C17.794 9.35414 16.8318 8.83972 15.7864 8.60106C15.5925 8.5569 15.4241 8.4375 15.3182 8.26914C15.2122 8.10079 15.1775 7.89725 15.2217 7.70331ZM10.4134 8.99181C10.4805 9.06403 10.5327 9.14876 10.567 9.24116C10.6013 9.33356 10.6171 9.43181 10.6134 9.5303C10.6097 9.62879 10.5866 9.72559 10.5455 9.81516C10.5044 9.90473 10.446 9.98532 10.3737 10.0523C10.2627 10.1548 10.1559 10.2613 10.0534 10.3718C9.9172 10.5136 9.73073 10.5962 9.53419 10.6018C9.33765 10.6074 9.14676 10.5357 9.00261 10.402C8.85847 10.2682 8.7726 10.0832 8.76349 9.88684C8.75439 9.69043 8.82278 9.49829 8.95395 9.35181C9.08145 9.21381 9.21444 9.08056 9.35294 8.95206C9.42516 8.88499 9.50989 8.83281 9.60229 8.7985C9.69469 8.7642 9.79294 8.74844 9.89143 8.75213C9.98993 8.75582 10.0867 8.77889 10.1763 8.82002C10.2659 8.86114 10.3465 8.91952 10.4134 8.99181ZM14.4529 9.95181C14.6519 9.95181 14.8426 10.0308 14.9833 10.1715C15.1239 10.3121 15.2029 10.5029 15.2029 10.7018V14.1413L17.2332 16.1716C17.3698 16.313 17.4454 16.5025 17.4437 16.6991C17.442 16.8958 17.3631 17.0839 17.2241 17.2229C17.085 17.362 16.8969 17.4409 16.7002 17.4426C16.5036 17.4443 16.3141 17.3687 16.1727 17.2321L13.9227 14.9821C13.782 14.8414 13.703 14.6507 13.7029 14.4518V10.7018C13.7029 10.5029 13.782 10.3121 13.9226 10.1715C14.0633 10.0308 14.254 9.95181 14.4529 9.95181ZM8.2227 11.7428C8.41274 11.8014 8.57173 11.9331 8.66469 12.1089C8.75766 12.2847 8.77699 12.4903 8.71845 12.6803C8.67396 12.8245 8.63493 12.9704 8.60144 13.1176C8.55373 13.3076 8.43357 13.4714 8.26664 13.5739C8.09972 13.6765 7.8993 13.7097 7.70823 13.6664C7.51717 13.623 7.35063 13.5067 7.24425 13.3422C7.13786 13.1777 7.10006 12.9781 7.13894 12.7861C7.18094 12.6011 7.2297 12.4186 7.2852 12.2386C7.3438 12.0485 7.47549 11.8895 7.65129 11.7966C7.8271 11.7036 8.03263 11.6843 8.2227 11.7428Z" fill="white"/>
</svg>
