<svg width="32" height="32" viewBox="0 0 32 32" fill="none" xmlns="http://www.w3.org/2000/svg">
<rect width="32" height="32" rx="4" fill="#B8965A" fill-opacity="0.1"/>
<g clip-path="url(#clip0_870_383)">
<path d="M18 17.333C18.1333 16.6663 18.4667 16.1997 19 15.6663C19.6667 15.0663 20 14.1997 20 13.333C20 12.2721 19.5786 11.2547 18.8284 10.5046C18.0783 9.75444 17.0609 9.33301 16 9.33301C14.9391 9.33301 13.9217 9.75444 13.1716 10.5046C12.4214 11.2547 12 12.2721 12 13.333C12 13.9997 12.1333 14.7997 13 15.6663C13.4667 16.133 13.8667 16.6663 14 17.333" stroke="#B8965A" stroke-width="1.33333" stroke-linecap="round" stroke-linejoin="round"/>
<path d="M14 20H18" stroke="#B8965A" stroke-width="1.33333" stroke-linecap="round" stroke-linejoin="round"/>
<path d="M14.668 22.667H17.3346" stroke="#B8965A" stroke-width="1.33333" stroke-linecap="round" stroke-linejoin="round"/>
</g>
<defs>
<clipPath id="clip0_870_383">
<rect width="16" height="16" fill="white" transform="translate(8 8)"/>
</clipPath>
</defs>
</svg>
