<svg width="48" height="48" viewBox="0 0 48 48" fill="none" xmlns="http://www.w3.org/2000/svg">
<rect width="48" height="48" rx="6" fill="#1C1410"/>
<path d="M28.4512 33V31C28.4512 29.9391 28.0297 28.9217 27.2796 28.1716C26.5295 27.4214 25.512 27 24.4512 27H18.4512C17.3903 27 16.3729 27.4214 15.6227 28.1716C14.8726 28.9217 14.4512 29.9391 14.4512 31V33" stroke="white" stroke-width="2" stroke-linecap="round" stroke-linejoin="round"/>
<path d="M21.4512 23C23.6603 23 25.4512 21.2091 25.4512 19C25.4512 16.7909 23.6603 15 21.4512 15C19.242 15 17.4512 16.7909 17.4512 19C17.4512 21.2091 19.242 23 21.4512 23Z" stroke="white" stroke-width="2" stroke-linecap="round" stroke-linejoin="round"/>
<path d="M34.4551 33.0009V31.0009C34.4544 30.1146 34.1594 29.2536 33.6164 28.5532C33.0735 27.8527 32.3132 27.3524 31.4551 27.1309" stroke="white" stroke-width="2" stroke-linecap="round" stroke-linejoin="round"/>
<path d="M28.4551 15.1309C29.3155 15.3512 30.0781 15.8516 30.6227 16.5532C31.1673 17.2548 31.4629 18.1177 31.4629 19.0059C31.4629 19.894 31.1673 20.7569 30.6227 21.4585C30.0781 22.1602 29.3155 22.6606 28.4551 22.8809" stroke="white" stroke-width="2" stroke-linecap="round" stroke-linejoin="round"/>
</svg>
