<svg width="48" height="48" viewBox="0 0 48 48" fill="none" xmlns="http://www.w3.org/2000/svg">
<rect width="48" height="48" rx="6" fill="#1C1410"/>
<path d="M28.4512 33V31C28.4512 29.9391 28.0297 28.9217 27.2796 28.1716C26.5295 27.4214 25.512 27 24.4512 27H18.4512C17.3903 27 16.3729 27.4214 15.6227 28.1716C14.8726 28.9217 14.4512 29.9391 14.4512 31V33" stroke="white" stroke-width="2" stroke-linecap="round" stroke-linejoin="round"/>
<path d="M21.4512 23C23.6603 23 25.4512 21.2091 25.4512 19C25.4512 16.7909 23.6603 15 21.4512 15C19.242 15 17.4512 16.7909 17.4512 19C17.4512 21.2091 19.242 23 21.4512 23Z" stroke="white" stroke-width="2" stroke-linecap="round" stroke-linejoin="round"/>
<path d="M28.4551 23L30.4551 25L34.4551 21" stroke="white" stroke-width="2" stroke-linecap="round" stroke-linejoin="round"/>
</svg>
