<svg width="32" height="32" viewBox="0 0 32 32" fill="none" xmlns="http://www.w3.org/2000/svg">
<rect width="32" height="32" rx="4" fill="#B8965A" fill-opacity="0.1"/>
<path d="M18.6654 22V20.6667C18.6654 19.9594 18.3844 19.2811 17.8843 18.781C17.3842 18.281 16.7059 18 15.9987 18H11.9987C11.2915 18 10.6132 18.281 10.1131 18.781C9.61298 19.2811 9.33203 19.9594 9.33203 20.6667V22" stroke="#B8965A" stroke-width="1.33333" stroke-linecap="round" stroke-linejoin="round"/>
<path d="M13.9987 15.3333C15.4715 15.3333 16.6654 14.1394 16.6654 12.6667C16.6654 11.1939 15.4715 10 13.9987 10C12.5259 10 11.332 11.1939 11.332 12.6667C11.332 14.1394 12.5259 15.3333 13.9987 15.3333Z" stroke="#B8965A" stroke-width="1.33333" stroke-linecap="round" stroke-linejoin="round"/>
<path d="M22.668 22.0002V20.6669C22.6675 20.0761 22.4709 19.5021 22.1089 19.0351C21.7469 18.5682 21.2401 18.2346 20.668 18.0869" stroke="#B8965A" stroke-width="1.33333" stroke-linecap="round" stroke-linejoin="round"/>
<path d="M18.668 10.0869C19.2416 10.2338 19.75 10.5674 20.1131 11.0351C20.4761 11.5029 20.6732 12.0781 20.6732 12.6702C20.6732 13.2624 20.4761 13.8376 20.1131 14.3054C19.75 14.7731 19.2416 15.1067 18.668 15.2536" stroke="#B8965A" stroke-width="1.33333" stroke-linecap="round" stroke-linejoin="round"/>
</svg>
