<svg width="32" height="32" viewBox="0 0 32 32" fill="none" xmlns="http://www.w3.org/2000/svg">
<rect width="32" height="32" rx="4" fill="#B8965A" fill-opacity="0.2"/>
<path d="M18.6654 22V20.6667C18.6654 19.9594 18.3844 19.2811 17.8843 18.781C17.3842 18.281 16.7059 18 15.9987 18H11.9987C11.2915 18 10.6132 18.281 10.1131 18.781C9.61298 19.2811 9.33203 19.9594 9.33203 20.6667V22" stroke="#B8965A" stroke-width="1.33333" stroke-linecap="round" stroke-linejoin="round"/>
<path d="M13.9987 15.3333C15.4715 15.3333 16.6654 14.1394 16.6654 12.6667C16.6654 11.1939 15.4715 10 13.9987 10C12.5259 10 11.332 11.1939 11.332 12.6667C11.332 14.1394 12.5259 15.3333 13.9987 15.3333Z" stroke="#B8965A" stroke-width="1.33333" stroke-linecap="round" stroke-linejoin="round"/>
<path d="M22.668 21.9993V20.6659C22.6675 20.0751 22.4709 19.5011 22.1089 19.0341C21.7469 18.5672 21.2401 18.2336 20.668 18.0859" stroke="#B8965A" stroke-width="1.33333" stroke-linecap="round" stroke-linejoin="round"/>
<path d="M18.668 10.0859C19.2416 10.2328 19.75 10.5664 20.1131 11.0341C20.4761 11.5019 20.6732 12.0772 20.6732 12.6693C20.6732 13.2614 20.4761 13.8367 20.1131 14.3044C19.75 14.7721 19.2416 15.1057 18.668 15.2526" stroke="#B8965A" stroke-width="1.33333" stroke-linecap="round" stroke-linejoin="round"/>
</svg>
