<svg width="32" height="32" viewBox="0 0 32 32" fill="none" xmlns="http://www.w3.org/2000/svg">
<rect width="32" height="32" rx="4" fill="#B8965A" fill-opacity="0.2"/>
<path d="M18.6693 22V20.6667C18.6693 19.9594 18.3883 19.2811 17.8882 18.781C17.3881 18.281 16.7098 18 16.0026 18H12.0026C11.2954 18 10.6171 18.281 10.117 18.781C9.61689 19.2811 9.33594 19.9594 9.33594 20.6667V22" stroke="#B8965A" stroke-width="1.66667" stroke-linecap="round" stroke-linejoin="round"/>
<path d="M14.0026 15.3333C15.4754 15.3333 16.6693 14.1394 16.6693 12.6667C16.6693 11.1939 15.4754 10 14.0026 10C12.5298 10 11.3359 11.1939 11.3359 12.6667C11.3359 14.1394 12.5298 15.3333 14.0026 15.3333Z" stroke="#B8965A" stroke-width="1.66667" stroke-linecap="round" stroke-linejoin="round"/>
<path d="M18.6641 15.3333L19.9974 16.6667L22.6641 14" stroke="#B8965A" stroke-width="1.66667" stroke-linecap="round" stroke-linejoin="round"/>
</svg>
