<svg width="28" height="28" viewBox="0 0 28 28" fill="none" xmlns="http://www.w3.org/2000/svg">
<circle cx="14" cy="14" r="14" fill="#491B27"/>
<path d="M11.2193 14.6189C10.6694 14.6189 10.1318 14.4558 9.6745 14.1502C9.21723 13.8447 8.86083 13.4104 8.65037 12.9023C8.43991 12.3942 8.38485 11.8351 8.49214 11.2958C8.59943 10.7564 8.86426 10.2609 9.25314 9.87203C9.64201 9.48315 10.1375 9.21833 10.6769 9.11103C11.2163 9.00374 11.7753 9.05881 12.2834 9.26927C12.7915 9.47973 13.2258 9.83613 13.5313 10.2934C13.8369 10.7507 14 11.2883 14 11.8382C13.9991 12.5754 13.7059 13.2822 13.1846 13.8035C12.6633 14.3248 11.9566 14.618 11.2193 14.6189ZM11.2193 10.9114C11.036 10.9114 10.8568 10.9657 10.7044 11.0676C10.552 11.1694 10.4332 11.3142 10.363 11.4835C10.2929 11.6529 10.2745 11.8393 10.3103 12.0191C10.346 12.1989 10.4343 12.364 10.5639 12.4936C10.6936 12.6233 10.8587 12.7115 11.0385 12.7473C11.2183 12.7831 11.4047 12.7647 11.574 12.6946C11.7434 12.6244 11.8882 12.5056 11.99 12.3532C12.0919 12.2008 12.1462 12.0215 12.1462 11.8382C12.1462 11.5924 12.0486 11.3567 11.8747 11.1828C11.7009 11.009 11.4652 10.9114 11.2193 10.9114ZM15.8537 20.4891C15.8537 19.26 15.3654 18.0812 14.4963 17.2121C13.6272 16.343 12.4484 15.8547 11.2193 15.8547C9.99022 15.8547 8.81145 16.343 7.94234 17.2121C7.07322 18.0812 6.58496 19.26 6.58496 20.4891C6.58496 20.7349 6.68261 20.9706 6.85644 21.1445C7.03026 21.3183 7.26601 21.4159 7.51184 21.4159C7.75766 21.4159 7.99341 21.3183 8.16724 21.1445C8.34106 20.9706 8.43871 20.7349 8.43871 20.4891C8.43871 19.7516 8.73167 19.0443 9.25314 18.5229C9.77461 18.0014 10.4819 17.7084 11.2193 17.7084C11.9568 17.7084 12.6641 18.0014 13.1855 18.5229C13.707 19.0443 14 19.7516 14 20.4891C14 20.7349 14.0976 20.9706 14.2714 21.1445C14.4453 21.3183 14.681 21.4159 14.9268 21.4159C15.1727 21.4159 15.4084 21.3183 15.5822 21.1445C15.7561 20.9706 15.8537 20.7349 15.8537 20.4891ZM21.415 17.7084C21.415 16.8881 21.1818 16.0846 20.7425 15.3918C20.3032 14.699 19.676 14.1454 18.9339 13.7956C18.1919 13.4458 17.3657 13.3142 16.5517 13.4162C15.7377 13.5182 14.9695 13.8496 14.3367 14.3717C14.2428 14.4492 14.1651 14.5444 14.1081 14.6519C14.051 14.7595 14.0156 14.8772 14.004 14.9984C13.9924 15.1195 14.0048 15.2418 14.0405 15.3582C14.0762 15.4746 14.1344 15.5828 14.2119 15.6767C14.2894 15.7706 14.3846 15.8483 14.4922 15.9054C14.5997 15.9625 14.7174 15.9978 14.8386 16.0094C14.9598 16.021 15.082 16.0086 15.1984 15.973C15.3148 15.9373 15.4231 15.879 15.5169 15.8015C15.9584 15.4342 16.5152 15.2342 17.0895 15.2368C17.7451 15.2368 18.3737 15.4972 18.8373 15.9607C19.3008 16.4242 19.5612 17.0529 19.5612 17.7084C19.5612 17.9543 19.6589 18.19 19.8327 18.3638C20.0065 18.5377 20.2423 18.6353 20.4881 18.6353C20.7339 18.6353 20.9697 18.5377 21.1435 18.3638C21.3173 18.19 21.415 17.9543 21.415 17.7084ZM17.3985 12.1472C16.8485 12.1472 16.3109 11.9841 15.8537 11.6786C15.3964 11.373 15.04 10.9388 14.8295 10.4307C14.6191 9.92257 14.564 9.36348 14.6713 8.82409C14.7786 8.2847 15.0434 7.78924 15.4323 7.40037C15.8212 7.01149 16.3166 6.74666 16.856 6.63937C17.3954 6.53208 17.9545 6.58714 18.4626 6.7976C18.9707 7.00806 19.405 7.36446 19.7105 7.82173C20.016 8.279 20.1791 8.81661 20.1791 9.36656C20.1783 10.1038 19.8851 10.8106 19.3638 11.3319C18.8425 11.8532 18.1357 12.1464 17.3985 12.1472ZM17.3985 8.43969C17.2152 8.43969 17.036 8.49405 16.8836 8.5959C16.7311 8.69774 16.6123 8.8425 16.5422 9.01186C16.472 9.18123 16.4537 9.36759 16.4894 9.54739C16.5252 9.72718 16.6135 9.89234 16.7431 10.022C16.8727 10.1516 17.0379 10.2399 17.2177 10.2756C17.3975 10.3114 17.5838 10.293 17.7532 10.2229C17.9226 10.1527 18.0673 10.0339 18.1692 9.88151C18.271 9.72908 18.3254 9.54988 18.3254 9.36656C18.3254 9.12074 18.2277 8.88499 18.0539 8.71116C17.8801 8.53734 17.6443 8.43969 17.3985 8.43969Z" fill="white"/>
</svg>
