<svg width="48" height="48" viewBox="0 0 48 48" fill="none" xmlns="http://www.w3.org/2000/svg">
<rect width="48" height="48" rx="6" fill="#1C1410"/>
<path d="M28.2417 19.7598L26.4377 25.1708C26.3395 25.4653 26.1741 25.733 25.9545 25.9526C25.735 26.1722 25.4673 26.3376 25.1727 26.4358L19.7617 28.2398L21.5657 22.8288C21.6639 22.5342 21.8293 22.2665 22.0489 22.0469C22.2685 21.8274 22.5361 21.6619 22.8307 21.5638L28.2417 19.7598Z" stroke="#F5EFE4" stroke-width="2" stroke-linecap="round" stroke-linejoin="round"/>
<path d="M24 34C29.5228 34 34 29.5228 34 24C34 18.4772 29.5228 14 24 14C18.4772 14 14 18.4772 14 24C14 29.5228 18.4772 34 24 34Z" stroke="#F5EFE4" stroke-width="2" stroke-linecap="round" stroke-linejoin="round"/>
</svg>
