<svg width="48" height="48" viewBox="0 0 48 48" fill="none" xmlns="http://www.w3.org/2000/svg">
<rect width="48" height="48" rx="6" fill="#1C1410"/>
<path d="M18 34V16C18 15.4696 18.2107 14.9609 18.5858 14.5858C18.9609 14.2107 19.4696 14 20 14H28C28.5304 14 29.0391 14.2107 29.4142 14.5858C29.7893 14.9609 30 15.4696 30 16V34H18Z" stroke="#F5EFE4" stroke-width="2" stroke-linecap="round" stroke-linejoin="round"/>
<path d="M18 24H16C15.4696 24 14.9609 24.2107 14.5858 24.5858C14.2107 24.9609 14 25.4696 14 26V32C14 32.5304 14.2107 33.0391 14.5858 33.4142C14.9609 33.7893 15.4696 34 16 34H18" stroke="#F5EFE4" stroke-width="2" stroke-linecap="round" stroke-linejoin="round"/>
<path d="M30 21H32C32.5304 21 33.0391 21.2107 33.4142 21.5858C33.7893 21.9609 34 22.4696 34 23V32C34 32.5304 33.7893 33.0391 33.4142 33.4142C33.0391 33.7893 32.5304 34 32 34H30" stroke="#F5EFE4" stroke-width="2" stroke-linecap="round" stroke-linejoin="round"/>
<path d="M22 18H26" stroke="#F5EFE4" stroke-width="2" stroke-linecap="round" stroke-linejoin="round"/>
<path d="M22 22H26" stroke="#F5EFE4" stroke-width="2" stroke-linecap="round" stroke-linejoin="round"/>
<path d="M22 26H26" stroke="#F5EFE4" stroke-width="2" stroke-linecap="round" stroke-linejoin="round"/>
<path d="M22 30H26" stroke="#F5EFE4" stroke-width="2" stroke-linecap="round" stroke-linejoin="round"/>
</svg>
