<svg width="48" height="48" viewBox="0 0 48 48" fill="none" xmlns="http://www.w3.org/2000/svg">
<rect width="48" height="48" rx="6" fill="#1C1410"/>
<path d="M32.4551 25.0004C32.4551 30.0004 28.9551 32.5005 24.7951 33.9505C24.5772 34.0243 24.3406 34.0207 24.1251 33.9405C19.9551 32.5005 16.4551 30.0004 16.4551 25.0004V18.0004C16.4551 17.7352 16.5604 17.4809 16.748 17.2933C16.9355 17.1058 17.1899 17.0004 17.4551 17.0004C19.4551 17.0004 21.9551 15.8004 23.6951 14.2804C23.9069 14.0994 24.1764 14 24.4551 14C24.7337 14 25.0032 14.0994 25.2151 14.2804C26.9651 15.8104 29.4551 17.0004 31.4551 17.0004C31.7203 17.0004 31.9746 17.1058 32.1622 17.2933C32.3497 17.4809 32.4551 17.7352 32.4551 18.0004V25.0004Z" stroke="white" stroke-width="2" stroke-linecap="round" stroke-linejoin="round"/>
</svg>
