<svg width="28" height="28" viewBox="0 0 28 28" fill="none" xmlns="http://www.w3.org/2000/svg">
<circle cx="14" cy="14" r="14" fill="#491B27"/>
<path d="M16.1049 14.8089L13.3267 16.3719C12.7077 16.7202 11.9433 16.2728 11.9433 15.563V12.4377C11.9433 11.728 12.7077 11.2805 13.3267 11.6289L16.1049 13.1919C16.7354 13.5465 16.7354 14.455 16.1049 14.8102V14.8089ZM9.16712 9.16695C9.43422 8.89984 9.43422 8.46743 9.16712 8.20033C8.90002 7.93322 8.4676 7.93322 8.2005 8.20033C5.00348 11.398 5.00348 16.6021 8.2005 19.7998C8.4676 20.0669 8.90002 20.0669 9.16712 19.7998C9.43422 19.5327 9.43422 19.1002 9.16712 18.8331C6.50294 16.1683 6.50294 11.8318 9.16712 9.16695ZM19.7999 8.20033C19.5328 7.93322 19.1004 7.93322 18.8333 8.20033C18.5662 8.46743 18.5662 8.89984 18.8333 9.16695C21.4975 11.8318 21.4975 16.1683 18.8333 18.8331C18.5662 19.1002 18.5662 19.5327 18.8333 19.7998C19.1004 20.0669 19.5328 20.0669 19.7999 19.7998C22.9976 16.6021 22.9976 11.398 19.7999 8.20033ZM11.1004 10.1336C10.8333 9.86647 10.4008 9.86647 10.1337 10.1336C9.10086 11.1658 8.5325 12.5388 8.5325 14C8.5325 15.4612 9.10086 16.8336 10.1337 17.8665C10.4008 18.1336 10.8333 18.1336 11.1004 17.8665C11.3675 17.5994 11.3675 17.167 11.1004 16.8999C10.3257 16.1252 9.89943 15.0958 9.89943 14C9.89943 12.9043 10.3257 11.8748 11.1004 11.1002C11.3675 10.8338 11.3675 10.4007 11.1004 10.1336ZM17.8667 10.1336C17.5996 9.86647 17.1672 9.86647 16.9001 10.1336C16.633 10.4007 16.633 10.8331 16.9001 11.1002C17.6747 11.8748 18.101 12.9043 18.101 14C18.101 15.0958 17.6747 16.1252 16.9001 16.8999C16.633 17.1663 16.633 17.5994 16.9001 17.8665C17.1672 18.1336 17.5996 18.1336 17.8667 17.8665C18.8996 16.8343 19.4679 15.4612 19.4679 14C19.4679 12.5388 18.8996 11.1664 17.8667 10.1336Z" fill="white"/>
</svg>
