<svg width="28" height="28" viewBox="0 0 28 28" fill="none" xmlns="http://www.w3.org/2000/svg">
<circle cx="14" cy="14" r="14" fill="#491B27"/>
<path d="M17.625 12.25C15.2131 12.25 13.25 14.2125 13.25 16.625C13.25 19.0375 15.2131 21 17.625 21C20.0369 21 22 19.0375 22 16.625C22 14.2125 20.0369 12.25 17.625 12.25ZM17.625 19.75C15.9019 19.75 14.5 18.3481 14.5 16.625C14.5 14.9019 15.9019 13.5 17.625 13.5C19.3481 13.5 20.75 14.9019 20.75 16.625C20.75 18.3481 19.3481 19.75 17.625 19.75ZM18.25 16.3663L19.3169 17.4331L18.4331 18.3169L17 16.8837V14.75H18.25V16.3663ZM20.125 8.5H18.25V7.25C18.25 6.56062 17.6894 6 17 6H12C11.3106 6 10.75 6.56062 10.75 7.25V8.5H8.875C7.84125 8.5 7 9.34125 7 10.375V21H14.0931C13.6519 20.6431 13.265 20.2225 12.9487 19.75H8.25V14.75H12.3269C12.4844 14.3056 12.6906 13.885 12.9487 13.5H8.25V10.375C8.25 10.0306 8.53 9.75 8.875 9.75H20.125C20.47 9.75 20.75 10.0306 20.75 10.375V11.9487C21.2225 12.265 21.6431 12.6519 22 13.0931V10.375C22 9.34125 21.1588 8.5 20.125 8.5ZM12 7.25H17V8.5H12V7.25Z" fill="white"/>
</svg>
